<svg width="359" height="81" viewBox="0 0 359 81" fill="none" xmlns="http://www.w3.org/2000/svg">
<path fill-rule="evenodd" clip-rule="evenodd" d="M100.739 80.5C100.739 80.5 107.416 80.5 107.416 73.8333C107.416 67.1667 100.739 47.1667 74.0312 47.1667C47.3231 47.1667 40.6461 67.1667 40.6461 73.8333C40.6461 80.5 47.3231 80.5 47.3231 80.5H100.739ZM47.47 73.8333C47.4207 73.8265 47.3717 73.8176 47.3231 73.8067C47.3298 72.0467 48.4382 66.94 52.3977 62.34C56.0834 58.0267 62.5601 53.8333 74.0312 53.8333C85.4956 53.8333 91.9723 58.0333 95.6647 62.34C99.6242 66.94 100.726 72.0533 100.739 73.8067L100.686 73.82C100.655 73.8252 100.624 73.8297 100.592 73.8333H47.47ZM74.0312 33.8333C77.5729 33.8333 80.9696 32.4286 83.4739 29.9281C85.9783 27.4276 87.3852 24.0362 87.3852 20.5C87.3852 16.9638 85.9783 13.5724 83.4739 11.0719C80.9696 8.57142 77.5729 7.16667 74.0312 7.16667C70.4895 7.16667 67.0928 8.57142 64.5885 11.0719C62.0841 13.5724 60.6772 16.9638 60.6772 20.5C60.6772 24.0362 62.0841 27.4276 64.5885 29.9281C67.0928 32.4286 70.4895 33.8333 74.0312 33.8333ZM94.0622 20.5C94.0622 23.1264 93.5441 25.7272 92.5375 28.1537C91.5308 30.5802 90.0553 32.785 88.1953 34.6421C86.3352 36.4993 84.127 37.9725 81.6967 38.9776C79.2665 39.9827 76.6617 40.5 74.0312 40.5C71.4007 40.5 68.7959 39.9827 66.3656 38.9776C63.9354 37.9725 61.7271 36.4993 59.8671 34.6421C58.007 32.785 56.5316 30.5802 55.5249 28.1537C54.5182 25.7272 54.0001 23.1264 54.0001 20.5C54.0001 15.1957 56.1105 10.1086 59.8671 6.35786C63.6236 2.60714 68.7186 0.5 74.0312 0.5C79.3438 0.5 84.4387 2.60714 88.1953 6.35786C91.9518 10.1086 94.0622 15.1957 94.0622 20.5ZM33.4349 53.8333L33.4304 53.8401L33.4349 53.84V53.8333Z" fill="#656565"/>
<path fill-rule="evenodd" clip-rule="evenodd" d="M10.5995 23.8333C10.5995 18.529 12.7099 13.4419 16.4665 9.6912C20.223 5.94047 25.318 3.83333 30.6306 3.83333C35.9431 3.83333 41.0381 5.94047 44.7947 9.6912C48.5512 13.4419 50.6616 18.529 50.6616 23.8333C50.6616 29.1377 48.5512 34.2247 44.7947 37.9755C41.0381 41.7262 35.9431 43.8333 30.6306 43.8333C25.318 43.8333 20.223 41.7262 16.4665 37.9755C12.7099 34.2247 10.5995 29.1377 10.5995 23.8333ZM21.1878 14.4052C23.6922 11.9048 27.0889 10.5 30.6306 10.5C34.1723 10.5 37.5689 11.9048 40.0733 14.4052C42.5777 16.9057 43.9846 20.2971 43.9846 23.8333C43.9846 27.3696 42.5777 30.7609 40.0733 33.2614C37.5689 35.7619 34.1723 37.1667 30.6306 37.1667C27.0889 37.1667 23.6922 35.7619 21.1878 33.2614C18.6835 30.7609 17.2765 27.3696 17.2765 23.8333C17.2765 20.2971 18.6835 16.9057 21.1878 14.4052Z" fill="#D7E026"/>
<path fill-rule="evenodd" clip-rule="evenodd" d="M46.8958 49.0333C44.2249 48.1936 41.4716 47.6416 38.6831 47.3867C37.1162 47.2379 35.543 47.1645 33.9691 47.1667C7.261 47.1667 0.583984 67.1667 0.583984 73.8333C0.583984 78.28 2.80743 80.5 7.261 80.5H35.4113C34.4215 78.4188 33.9278 76.1369 33.9691 73.8333C33.9691 67.1 36.4863 60.22 41.247 54.4733C42.8695 52.5133 44.7591 50.68 46.8958 49.0333ZM27.2921 73.8333H7.261C7.261 72.1 8.35603 66.9667 12.3355 62.34C15.974 58.1006 22.296 53.9678 33.4304 53.8401L33.4349 53.8333V53.84L33.4304 53.8401C29.4815 59.7671 27.3484 66.7148 27.2921 73.8333Z" fill="#D7E026"/>
<path d="M135.96 16.168H149.72L159.064 48.872C159.491 50.28 159.79 51.6027 159.96 52.84C160.174 54.0347 160.28 55.464 160.28 57.128H161.304C161.304 55.464 161.39 54.0347 161.56 52.84C161.774 51.6027 162.094 50.28 162.52 48.872L171.864 16.168H185.624V65H177.496V30.056C177.496 27.7947 177.624 25.384 177.88 22.824L176.856 22.696C176.302 25.8533 175.747 28.3067 175.192 30.056L164.76 65H156.824L146.392 30.056C145.838 28.3067 145.283 25.8533 144.728 22.696L143.768 22.824C143.982 25.384 144.088 27.7947 144.088 30.056V65H135.96V16.168ZM210.773 65.704C207.274 65.704 204.159 64.9147 201.429 63.336C198.741 61.7147 196.65 59.5173 195.157 56.744C193.663 53.928 192.917 50.7707 192.917 47.272C192.917 44.0293 193.578 40.9787 194.901 38.12C196.266 35.2613 198.271 32.9573 200.917 31.208C203.605 29.4587 206.826 28.584 210.581 28.584C213.738 28.584 216.661 29.2667 219.349 30.632C222.079 31.9547 224.255 33.9813 225.877 36.712C227.541 39.4427 228.373 42.792 228.373 46.76V48.68H204.693C202.474 48.68 200.938 48.616 200.085 48.488L199.829 49.512C200.213 49.5973 200.469 49.768 200.597 50.024C200.767 50.2373 200.938 50.5787 201.109 51.048C201.493 51.944 201.727 52.4773 201.813 52.648C202.666 54.6533 203.882 56.232 205.461 57.384C207.082 58.536 208.917 59.112 210.965 59.112C213.141 59.112 214.997 58.5573 216.533 57.448C218.111 56.296 219.242 54.8667 219.925 53.16H227.733C226.581 56.872 224.575 59.9013 221.717 62.248C218.858 64.552 215.21 65.704 210.773 65.704ZM200.917 43.752C201.557 43.368 202.111 43.112 202.581 42.984C203.093 42.8133 203.69 42.728 204.373 42.728H217.045C217.77 42.728 218.389 42.8133 218.901 42.984C219.455 43.112 220.053 43.368 220.693 43.752L221.333 42.92C220.949 42.7067 220.693 42.5147 220.565 42.344C220.479 42.1307 220.373 41.832 220.245 41.448C220.159 40.8507 219.861 40.1467 219.349 39.336C218.495 37.8427 217.322 36.712 215.829 35.944C214.335 35.1333 212.671 34.728 210.837 34.728C208.959 34.728 207.295 35.1333 205.845 35.944C204.394 36.712 203.221 37.8427 202.325 39.336C201.983 39.8907 201.685 40.5947 201.429 41.448C201.343 41.7893 201.237 42.0667 201.109 42.28C200.981 42.4507 200.725 42.664 200.341 42.92L200.917 43.752ZM235.139 29.224H242.691V30.76C242.691 31.4 242.627 31.9333 242.499 32.36C242.371 32.7867 242.136 33.2347 241.795 33.704L242.691 34.28C244.099 32.232 245.571 30.7813 247.107 29.928C248.685 29.032 250.541 28.584 252.675 28.584C258.051 28.584 261.699 30.5253 263.619 34.408C264.344 35.816 264.792 37.2453 264.963 38.696C265.133 40.1467 265.219 41.9387 265.219 44.072V65H257.603V44.072C257.603 42.1947 257.453 40.6587 257.155 39.464C256.899 38.2693 256.451 37.3307 255.811 36.648C254.787 35.496 253.165 34.92 250.947 34.92C248.387 34.92 246.445 35.688 245.123 37.224C244.269 38.2053 243.651 39.5067 243.267 41.128C242.883 42.7493 242.691 44.968 242.691 47.784V65H235.139V29.224ZM283.651 65C280.878 65 278.787 64.36 277.379 63.08C275.971 61.8 275.267 59.688 275.267 56.744V35.496H269.891V29.224H275.267V16.168H282.819V29.224H290.115V35.496H282.819V54.632C282.819 55.9973 283.033 57.0213 283.459 57.704C283.886 58.344 284.825 58.664 286.275 58.664H290.051V65H283.651ZM312.276 65.704C308.777 65.704 305.662 64.9147 302.932 63.336C300.201 61.7573 298.068 59.56 296.532 56.744C295.038 53.8853 294.292 50.6213 294.292 46.952C294.292 43.4107 295.038 40.2533 296.532 37.48C298.068 34.664 300.201 32.488 302.932 30.952C305.662 29.3733 308.777 28.584 312.276 28.584C315.774 28.584 318.889 29.3733 321.62 30.952C324.35 32.488 326.484 34.664 328.02 37.48C329.556 40.2533 330.324 43.4107 330.324 46.952C330.324 50.5787 329.556 53.8213 328.02 56.68C326.526 59.496 324.414 61.7147 321.684 63.336C318.953 64.9147 315.817 65.704 312.276 65.704ZM312.276 59.112C314.238 59.112 316.009 58.6 317.588 57.576C319.166 56.5093 320.382 55.0587 321.236 53.224C322.132 51.3893 322.58 49.2987 322.58 46.952C322.58 44.7333 322.132 42.728 321.236 40.936C320.382 39.1013 319.166 37.672 317.588 36.648C316.009 35.624 314.238 35.112 312.276 35.112C310.313 35.112 308.542 35.624 306.964 36.648C305.385 37.6293 304.148 39.0373 303.252 40.872C302.398 42.664 301.972 44.6907 301.972 46.952C301.972 49.3413 302.42 51.4533 303.316 53.288C304.212 55.1227 305.428 56.552 306.964 57.576C308.542 58.6 310.313 59.112 312.276 59.112ZM337.201 29.224H344.753V30.76C344.753 31.4 344.689 31.9333 344.561 32.36C344.433 32.7867 344.199 33.2347 343.857 33.704L344.753 34.28C346.076 32.232 347.569 30.7813 349.233 29.928C350.897 29.032 352.945 28.584 355.377 28.584H356.209V35.944H354.289C351.431 35.944 349.233 36.712 347.697 38.248C345.735 40.0827 344.753 43.24 344.753 47.72V65H337.201V29.224Z" fill="black"/>
</svg>
