<svg width="373" height="81" viewBox="0 0 373 81" fill="none" xmlns="http://www.w3.org/2000/svg">
<path fill-rule="evenodd" clip-rule="evenodd" d="M100.239 80.5C100.239 80.5 106.916 80.5 106.916 73.8333C106.916 67.1667 100.239 47.1667 73.531 47.1667C46.8229 47.1667 40.1459 67.1667 40.1459 73.8333C40.1459 80.5 46.8229 80.5 46.8229 80.5H100.239ZM46.9698 73.8333C46.9204 73.8265 46.8714 73.8177 46.8229 73.8067C46.8296 72.0467 47.9379 66.94 51.8974 62.34C55.5831 58.0267 62.0598 53.8333 73.531 53.8333C84.9954 53.8333 91.4721 58.0333 95.1645 62.34C99.124 66.94 100.226 72.0533 100.239 73.8067L100.186 73.82C100.155 73.8252 100.123 73.8297 100.092 73.8333H46.9698ZM73.531 33.8333C77.0727 33.8333 80.4693 32.4286 82.9737 29.9281C85.4781 27.4276 86.885 24.0362 86.885 20.5C86.885 16.9638 85.4781 13.5724 82.9737 11.0719C80.4693 8.57142 77.0727 7.16667 73.531 7.16667C69.9892 7.16667 66.5926 8.57142 64.0882 11.0719C61.5839 13.5724 60.1769 16.9638 60.1769 20.5C60.1769 24.0362 61.5839 27.4276 64.0882 29.9281C66.5926 32.4286 69.9892 33.8333 73.531 33.8333ZM93.562 20.5C93.562 23.1264 93.0439 25.7272 92.0372 28.1537C91.0306 30.5802 89.5551 32.785 87.6951 34.6421C85.835 36.4993 83.6268 37.9725 81.1965 38.9776C78.7662 39.9827 76.1615 40.5 73.531 40.5C70.9004 40.5 68.2957 39.9827 65.8654 38.9776C63.4351 37.9725 61.2269 36.4993 59.3669 34.6421C57.5068 32.785 56.0313 30.5802 55.0247 28.1537C54.018 25.7272 53.4999 23.1264 53.4999 20.5C53.4999 15.1957 55.6103 10.1086 59.3669 6.35786C63.1234 2.60714 68.2184 0.5 73.531 0.5C78.8435 0.5 83.9385 2.60714 87.6951 6.35786C91.4516 10.1086 93.562 15.1957 93.562 20.5ZM32.9347 53.8333L32.9302 53.8401L32.9347 53.84V53.8333Z" fill="#D7E026"/>
<path fill-rule="evenodd" clip-rule="evenodd" d="M10.0993 23.8333C10.0993 18.529 12.2097 13.4419 15.9662 9.6912C19.7228 5.94047 24.8178 3.83333 30.1303 3.83333C35.4429 3.83333 40.5379 5.94047 44.2944 9.6912C48.051 13.4419 50.1614 18.529 50.1614 23.8333C50.1614 29.1377 48.051 34.2247 44.2944 37.9755C40.5379 41.7262 35.4429 43.8333 30.1303 43.8333C24.8178 43.8333 19.7228 41.7262 15.9662 37.9755C12.2097 34.2247 10.0993 29.1377 10.0993 23.8333ZM20.6876 14.4052C23.192 11.9048 26.5886 10.5 30.1303 10.5C33.672 10.5 37.0687 11.9048 39.5731 14.4052C42.0774 16.9057 43.4844 20.2971 43.4844 23.8333C43.4844 27.3696 42.0774 30.7609 39.5731 33.2614C37.0687 35.7619 33.672 37.1667 30.1303 37.1667C26.5886 37.1667 23.192 35.7619 20.6876 33.2614C18.1832 30.7609 16.7763 27.3696 16.7763 23.8333C16.7763 20.2971 18.1832 16.9057 20.6876 14.4052Z" fill="#656565"/>
<path fill-rule="evenodd" clip-rule="evenodd" d="M46.3955 49.0333C43.7246 48.1936 40.9714 47.6416 38.1828 47.3867C36.6159 47.2379 35.0428 47.1645 33.4688 47.1667C6.76076 47.1667 0.0837402 67.1667 0.0837402 73.8333C0.0837402 78.28 2.30719 80.5 6.76076 80.5H34.9111C33.9212 78.4188 33.4276 76.1369 33.4688 73.8333C33.4688 67.1 35.9861 60.22 40.7468 54.4733C42.3693 52.5133 44.2589 50.68 46.3955 49.0333ZM26.7918 73.8333H6.76076C6.76076 72.1 7.85579 66.9667 11.8353 62.34C15.4738 58.1006 21.7957 53.9678 32.9302 53.8401L32.9347 53.8333V53.84L32.9302 53.8401C28.9813 59.7671 26.8481 66.7148 26.7918 73.8333Z" fill="#656565"/>
<path d="M135.46 16.168H149.22L158.564 48.872C158.991 50.28 159.289 51.6027 159.46 52.84C159.673 54.0347 159.78 55.464 159.78 57.128H160.804C160.804 55.464 160.889 54.0347 161.06 52.84C161.273 51.6027 161.593 50.28 162.02 48.872L171.364 16.168H185.124V65H176.996V30.056C176.996 27.7947 177.124 25.384 177.38 22.824L176.356 22.696C175.801 25.8533 175.247 28.3067 174.692 30.056L164.26 65H156.324L145.892 30.056C145.337 28.3067 144.783 25.8533 144.228 22.696L143.268 22.824C143.481 25.384 143.588 27.7947 143.588 30.056V65H135.46V16.168ZM210.273 65.704C206.774 65.704 203.659 64.9147 200.929 63.336C198.241 61.7147 196.15 59.5173 194.657 56.744C193.163 53.928 192.417 50.7707 192.417 47.272C192.417 44.0293 193.078 40.9787 194.401 38.12C195.766 35.2613 197.771 32.9573 200.417 31.208C203.105 29.4587 206.326 28.584 210.081 28.584C213.238 28.584 216.161 29.2667 218.849 30.632C221.579 31.9547 223.755 33.9813 225.377 36.712C227.041 39.4427 227.873 42.792 227.873 46.76V48.68H204.193C201.974 48.68 200.438 48.616 199.585 48.488L199.329 49.512C199.713 49.5973 199.969 49.768 200.097 50.024C200.267 50.2373 200.438 50.5787 200.609 51.048C200.993 51.944 201.227 52.4773 201.313 52.648C202.166 54.6533 203.382 56.232 204.961 57.384C206.582 58.536 208.417 59.112 210.465 59.112C212.641 59.112 214.497 58.5573 216.033 57.448C217.611 56.296 218.742 54.8667 219.425 53.16H227.233C226.081 56.872 224.075 59.9013 221.217 62.248C218.358 64.552 214.71 65.704 210.273 65.704ZM200.417 43.752C201.057 43.368 201.611 43.112 202.081 42.984C202.593 42.8133 203.19 42.728 203.873 42.728H216.545C217.27 42.728 217.889 42.8133 218.401 42.984C218.955 43.112 219.553 43.368 220.193 43.752L220.833 42.92C220.449 42.7067 220.193 42.5147 220.065 42.344C219.979 42.1307 219.873 41.832 219.745 41.448C219.659 40.8507 219.361 40.1467 218.849 39.336C217.995 37.8427 216.822 36.712 215.329 35.944C213.835 35.1333 212.171 34.728 210.337 34.728C208.459 34.728 206.795 35.1333 205.345 35.944C203.894 36.712 202.721 37.8427 201.825 39.336C201.483 39.8907 201.185 40.5947 200.929 41.448C200.843 41.7893 200.737 42.0667 200.609 42.28C200.481 42.4507 200.225 42.664 199.841 42.92L200.417 43.752ZM234.639 29.224H242.191V30.76C242.191 31.4 242.127 31.9333 241.999 32.36C241.871 32.7867 241.636 33.2347 241.295 33.704L242.191 34.28C243.599 32.232 245.071 30.7813 246.607 29.928C248.185 29.032 250.041 28.584 252.175 28.584C257.551 28.584 261.199 30.5253 263.119 34.408C263.844 35.816 264.292 37.2453 264.463 38.696C264.633 40.1467 264.719 41.9387 264.719 44.072V65H257.103V44.072C257.103 42.1947 256.953 40.6587 256.655 39.464C256.399 38.2693 255.951 37.3307 255.311 36.648C254.287 35.496 252.665 34.92 250.447 34.92C247.887 34.92 245.945 35.688 244.623 37.224C243.769 38.2053 243.151 39.5067 242.767 41.128C242.383 42.7493 242.191 44.968 242.191 47.784V65H234.639V29.224ZM283.151 65C280.378 65 278.287 64.36 276.879 63.08C275.471 61.8 274.767 59.688 274.767 56.744V35.496H269.391V29.224H274.767V16.168H282.319V29.224H289.615V35.496H282.319V54.632C282.319 55.9973 282.532 57.0213 282.959 57.704C283.386 58.344 284.324 58.664 285.775 58.664H289.551V65H283.151ZM311.648 65.704C308.149 65.704 305.034 64.9147 302.304 63.336C299.616 61.7147 297.525 59.5173 296.032 56.744C294.538 53.928 293.792 50.7707 293.792 47.272C293.792 44.0293 294.453 40.9787 295.776 38.12C297.141 35.2613 299.146 32.9573 301.792 31.208C304.48 29.4587 307.701 28.584 311.456 28.584C314.613 28.584 317.536 29.2667 320.224 30.632C322.954 31.9547 325.13 33.9813 326.752 36.712C328.416 39.4427 329.248 42.792 329.248 46.76V48.68H305.568C303.349 48.68 301.813 48.616 300.96 48.488L300.704 49.512C301.088 49.5973 301.344 49.768 301.472 50.024C301.642 50.2373 301.813 50.5787 301.984 51.048C302.368 51.944 302.602 52.4773 302.688 52.648C303.541 54.6533 304.757 56.232 306.336 57.384C307.957 58.536 309.792 59.112 311.84 59.112C314.016 59.112 315.872 58.5573 317.408 57.448C318.986 56.296 320.117 54.8667 320.8 53.16H328.608C327.456 56.872 325.45 59.9013 322.592 62.248C319.733 64.552 316.085 65.704 311.648 65.704ZM301.792 43.752C302.432 43.368 302.986 43.112 303.456 42.984C303.968 42.8133 304.565 42.728 305.248 42.728H317.92C318.645 42.728 319.264 42.8133 319.776 42.984C320.33 43.112 320.928 43.368 321.568 43.752L322.208 42.92C321.824 42.7067 321.568 42.5147 321.44 42.344C321.354 42.1307 321.248 41.832 321.12 41.448C321.034 40.8507 320.736 40.1467 320.224 39.336C319.37 37.8427 318.197 36.712 316.704 35.944C315.21 35.1333 313.546 34.728 311.712 34.728C309.834 34.728 308.17 35.1333 306.72 35.944C305.269 36.712 304.096 37.8427 303.2 39.336C302.858 39.8907 302.56 40.5947 302.304 41.448C302.218 41.7893 302.112 42.0667 301.984 42.28C301.856 42.4507 301.6 42.664 301.216 42.92L301.792 43.752ZM352.398 65.704C348.899 65.704 345.784 64.9147 343.054 63.336C340.366 61.7147 338.275 59.5173 336.782 56.744C335.288 53.928 334.542 50.7707 334.542 47.272C334.542 44.0293 335.203 40.9787 336.526 38.12C337.891 35.2613 339.896 32.9573 342.542 31.208C345.23 29.4587 348.451 28.584 352.206 28.584C355.363 28.584 358.286 29.2667 360.974 30.632C363.704 31.9547 365.88 33.9813 367.502 36.712C369.166 39.4427 369.998 42.792 369.998 46.76V48.68H346.318C344.099 48.68 342.563 48.616 341.71 48.488L341.454 49.512C341.838 49.5973 342.094 49.768 342.222 50.024C342.392 50.2373 342.563 50.5787 342.734 51.048C343.118 51.944 343.352 52.4773 343.438 52.648C344.291 54.6533 345.507 56.232 347.086 57.384C348.707 58.536 350.542 59.112 352.59 59.112C354.766 59.112 356.622 58.5573 358.158 57.448C359.736 56.296 360.867 54.8667 361.55 53.16H369.358C368.206 56.872 366.2 59.9013 363.342 62.248C360.483 64.552 356.835 65.704 352.398 65.704ZM342.542 43.752C343.182 43.368 343.736 43.112 344.206 42.984C344.718 42.8133 345.315 42.728 345.998 42.728H358.67C359.395 42.728 360.014 42.8133 360.526 42.984C361.08 43.112 361.678 43.368 362.318 43.752L362.958 42.92C362.574 42.7067 362.318 42.5147 362.19 42.344C362.104 42.1307 361.998 41.832 361.87 41.448C361.784 40.8507 361.486 40.1467 360.974 39.336C360.12 37.8427 358.947 36.712 357.454 35.944C355.96 35.1333 354.296 34.728 352.462 34.728C350.584 34.728 348.92 35.1333 347.47 35.944C346.019 36.712 344.846 37.8427 343.95 39.336C343.608 39.8907 343.31 40.5947 343.054 41.448C342.968 41.7893 342.862 42.0667 342.734 42.28C342.606 42.4507 342.35 42.664 341.966 42.92L342.542 43.752Z" fill="black"/>
</svg>
