<svg width="348" height="80" viewBox="0 0 348 80" fill="none" xmlns="http://www.w3.org/2000/svg">
<path fill-rule="evenodd" clip-rule="evenodd" d="M100.239 80C100.239 80 106.916 80 106.916 73.3333C106.916 66.6667 100.239 46.6667 73.5312 46.6667C46.8231 46.6667 40.1461 66.6667 40.1461 73.3333C40.1461 80 46.8231 80 46.8231 80H100.239ZM46.97 73.3333C46.9207 73.3265 46.8717 73.3176 46.8231 73.3067C46.8298 71.5467 47.9382 66.44 51.8977 61.84C55.5834 57.5267 62.0601 53.3333 73.5312 53.3333C84.9956 53.3333 91.4723 57.5333 95.1647 61.84C99.1242 66.44 100.226 71.5533 100.239 73.3067L100.186 73.32C100.155 73.3252 100.124 73.3297 100.092 73.3333H46.97ZM73.5312 33.3333C77.0729 33.3333 80.4696 31.9286 82.9739 29.4281C85.4783 26.9276 86.8852 23.5362 86.8852 20C86.8852 16.4638 85.4783 13.0724 82.9739 10.5719C80.4696 8.07142 77.0729 6.66667 73.5312 6.66667C69.9895 6.66667 66.5928 8.07142 64.0885 10.5719C61.5841 13.0724 60.1772 16.4638 60.1772 20C60.1772 23.5362 61.5841 26.9276 64.0885 29.4281C66.5928 31.9286 69.9895 33.3333 73.5312 33.3333ZM93.5622 20C93.5622 22.6264 93.0441 25.2272 92.0375 27.6537C91.0308 30.0802 89.5553 32.285 87.6953 34.1421C85.8352 35.9993 83.627 37.4725 81.1967 38.4776C78.7665 39.4827 76.1617 40 73.5312 40C70.9007 40 68.2959 39.4827 65.8656 38.4776C63.4354 37.4725 61.2271 35.9993 59.3671 34.1421C57.507 32.285 56.0316 30.0802 55.0249 27.6537C54.0182 25.2272 53.5001 22.6264 53.5001 20C53.5001 14.6957 55.6105 9.60859 59.3671 5.85786C63.1236 2.10714 68.2186 0 73.5312 0C78.8438 0 83.9387 2.10714 87.6953 5.85786C91.4518 9.60859 93.5622 14.6957 93.5622 20ZM32.9349 53.3333L32.9304 53.3401L32.9349 53.34V53.3333Z" fill="#00A79D"/>
<path fill-rule="evenodd" clip-rule="evenodd" d="M10.0995 23.3333C10.0995 18.029 12.2099 12.9419 15.9665 9.1912C19.723 5.44047 24.818 3.33333 30.1306 3.33333C35.4431 3.33333 40.5381 5.44047 44.2947 9.1912C48.0512 12.9419 50.1616 18.029 50.1616 23.3333C50.1616 28.6377 48.0512 33.7247 44.2947 37.4755C40.5381 41.2262 35.4431 43.3333 30.1306 43.3333C24.818 43.3333 19.723 41.2262 15.9665 37.4755C12.2099 33.7247 10.0995 28.6377 10.0995 23.3333ZM20.6878 13.9052C23.1922 11.4048 26.5889 10 30.1306 10C33.6723 10 37.0689 11.4048 39.5733 13.9052C42.0777 16.4057 43.4846 19.7971 43.4846 23.3333C43.4846 26.8696 42.0777 30.2609 39.5733 32.7614C37.0689 35.2619 33.6723 36.6667 30.1306 36.6667C26.5889 36.6667 23.1922 35.2619 20.6878 32.7614C18.1835 30.2609 16.7765 26.8696 16.7765 23.3333C16.7765 19.7971 18.1835 16.4057 20.6878 13.9052Z" fill="#656565"/>
<path fill-rule="evenodd" clip-rule="evenodd" d="M46.3958 48.5333C43.7249 47.6936 40.9716 47.1416 38.1831 46.8867C36.6162 46.7379 35.043 46.6645 33.4691 46.6667C6.761 46.6667 0.0839844 66.6667 0.0839844 73.3333C0.0839844 77.78 2.30743 80 6.761 80H34.9113C33.9215 77.9188 33.4278 75.6369 33.4691 73.3333C33.4691 66.6 35.9863 59.72 40.747 53.9733C42.3695 52.0133 44.2591 50.18 46.3958 48.5333ZM26.7921 73.3333H6.761C6.761 71.6 7.85603 66.4667 11.8355 61.84C15.474 57.6006 21.796 53.4678 32.9304 53.3401L32.9349 53.3333V53.34L32.9304 53.3401C28.9815 59.2671 26.8484 66.2148 26.7921 73.3333Z" fill="#656565"/>
<path d="M173.757 16.9545V63.5H166.257L144.325 31.7955H143.939V63.5H135.507V16.9545H143.053L164.962 48.6818H165.371V16.9545H173.757ZM182.581 63.5V28.5909H190.808V63.5H182.581ZM186.717 23.6364C185.414 23.6364 184.293 23.2045 183.354 22.3409C182.414 21.4621 181.945 20.4091 181.945 19.1818C181.945 17.9394 182.414 16.8864 183.354 16.0227C184.293 15.1439 185.414 14.7045 186.717 14.7045C188.036 14.7045 189.157 15.1439 190.081 16.0227C191.02 16.8864 191.49 17.9394 191.49 19.1818C191.49 20.4091 191.02 21.4621 190.081 22.3409C189.157 23.2045 188.036 23.6364 186.717 23.6364ZM207.496 43.0455V63.5H199.269V28.5909H207.132V34.5227H207.541C208.344 32.5682 209.625 31.0152 211.382 29.8636C213.155 28.7121 215.344 28.1364 217.95 28.1364C220.359 28.1364 222.458 28.6515 224.246 29.6818C226.049 30.7121 227.443 32.2045 228.428 34.1591C229.428 36.1136 229.92 38.4848 229.905 41.2727V63.5H221.678V42.5455C221.678 40.2121 221.072 38.3864 219.859 37.0682C218.662 35.75 217.003 35.0909 214.882 35.0909C213.443 35.0909 212.162 35.4091 211.041 36.0455C209.935 36.6667 209.064 37.5682 208.428 38.75C207.806 39.9318 207.496 41.3636 207.496 43.0455ZM251.223 64.1136C248.481 64.1136 246.026 63.4091 243.859 62C241.693 60.5909 239.981 58.5455 238.723 55.8636C237.466 53.1818 236.837 49.9242 236.837 46.0909C236.837 42.2121 237.473 38.9394 238.746 36.2727C240.034 33.5909 241.769 31.5682 243.95 30.2045C246.132 28.8258 248.564 28.1364 251.246 28.1364C253.291 28.1364 254.973 28.4848 256.291 29.1818C257.609 29.8636 258.655 30.6894 259.428 31.6591C260.2 32.6136 260.799 33.5152 261.223 34.3636H261.564V16.9545H269.814V63.5H261.723V58H261.223C260.799 58.8485 260.185 59.75 259.382 60.7045C258.579 61.6439 257.519 62.447 256.2 63.1136C254.882 63.7803 253.223 64.1136 251.223 64.1136ZM253.519 57.3636C255.261 57.3636 256.746 56.8939 257.973 55.9545C259.2 55 260.132 53.6742 260.769 51.9773C261.405 50.2803 261.723 48.303 261.723 46.0455C261.723 43.7879 261.405 41.8258 260.769 40.1591C260.147 38.4924 259.223 37.197 257.996 36.2727C256.784 35.3485 255.291 34.8864 253.519 34.8864C251.685 34.8864 250.155 35.3636 248.928 36.3182C247.7 37.2727 246.776 38.5909 246.155 40.2727C245.534 41.9545 245.223 43.8788 245.223 46.0455C245.223 48.2273 245.534 50.1742 246.155 51.8864C246.791 53.5833 247.723 54.9242 248.95 55.9091C250.193 56.8788 251.716 57.3636 253.519 57.3636ZM283.695 76.5909C282.573 76.5909 281.536 76.5 280.581 76.3182C279.642 76.1515 278.892 75.9545 278.331 75.7273L280.24 69.3182C281.437 69.6667 282.505 69.8333 283.445 69.8182C284.384 69.803 285.21 69.5076 285.922 68.9318C286.649 68.3712 287.263 67.4318 287.763 66.1136L288.467 64.2273L275.808 28.5909H284.536L292.581 54.9545H292.945L301.013 28.5909H309.763L295.786 67.7273C295.134 69.5758 294.27 71.1591 293.195 72.4773C292.119 73.8106 290.801 74.8258 289.24 75.5227C287.695 76.2348 285.846 76.5909 283.695 76.5909ZM324.501 64.2045C322.289 64.2045 320.297 63.8106 318.524 63.0227C316.767 62.2197 315.373 61.0379 314.342 59.4773C313.327 57.9167 312.82 55.9924 312.82 53.7045C312.82 51.7348 313.183 50.1061 313.911 48.8182C314.638 47.5303 315.63 46.5 316.888 45.7273C318.145 44.9545 319.562 44.3712 321.138 43.9773C322.729 43.5682 324.373 43.2727 326.07 43.0909C328.115 42.8788 329.774 42.6894 331.047 42.5227C332.32 42.3409 333.244 42.0682 333.82 41.7045C334.411 41.3258 334.706 40.7424 334.706 39.9545V39.8182C334.706 38.1061 334.198 36.7803 333.183 35.8409C332.168 34.9015 330.706 34.4318 328.797 34.4318C326.782 34.4318 325.183 34.8712 324.001 35.75C322.835 36.6288 322.047 37.6667 321.638 38.8636L313.956 37.7727C314.562 35.6515 315.562 33.8788 316.956 32.4545C318.35 31.0151 320.055 29.9394 322.07 29.2273C324.085 28.5 326.312 28.1364 328.751 28.1364C330.433 28.1364 332.108 28.3333 333.774 28.7273C335.441 29.1212 336.964 29.7727 338.342 30.6818C339.721 31.5758 340.827 32.7955 341.661 34.3409C342.509 35.8864 342.933 37.8182 342.933 40.1364V63.5H335.024V58.7045H334.751C334.251 59.6742 333.547 60.5833 332.638 61.4318C331.744 62.2652 330.615 62.9394 329.251 63.4545C327.903 63.9545 326.32 64.2045 324.501 64.2045ZM326.638 58.1591C328.289 58.1591 329.721 57.8333 330.933 57.1818C332.145 56.5152 333.077 55.6364 333.729 54.5455C334.395 53.4545 334.729 52.2652 334.729 50.9773V46.8636C334.471 47.0758 334.032 47.2727 333.411 47.4545C332.805 47.6364 332.123 47.7955 331.365 47.9318C330.608 48.0682 329.858 48.1894 329.115 48.2955C328.373 48.4015 327.729 48.4924 327.183 48.5682C325.956 48.7348 324.858 49.0076 323.888 49.3864C322.918 49.7652 322.153 50.2955 321.592 50.9773C321.032 51.6439 320.751 52.5076 320.751 53.5682C320.751 55.0833 321.305 56.2273 322.411 57C323.517 57.7727 324.926 58.1591 326.638 58.1591Z" fill="black"/>
</svg>
